# xmcd CD database file
#
# Track frame offsets:
#	150
#	19528
#	39831
#	80198
#	100869
#	121125
#	147926
#	172143
#	192144
#	209694
#	247408
#	274836
#	298559
#	322837
#
# Disc length: 4768 seconds
#
# Revision: 0
# Processed by: cddbd v1.5.2PL0 Copyright (c) Steve Scherf et al.
# Submitted via: CDex 1.51
#
DISCID=ce129e0e
DTITLE=Tortoise - Live Vancouver May, 04
DYEAR=2004
DGENRE=Jazz
TTITLE0=Unknown
TTITLE1=Dot Eyes
TTITLE2=Monica
TTITLE3=It's All Around You
TTITLE4=Stretch (You Are All Right)
TTITLE5=Crest
TTITLE6=Magnet Pulls Through
TTITLE7=Five Too Many
TTITLE8=Ten-Day Interval
TTITLE9=Swung From The Gutters
TTITLE10=I Set My Face To The Hillside
TTITLE11=Eros
TTITLE12=On The Chin
TTITLE13=Seneca
EXTD=YEAR: 2004
EXTT0=
EXTT1=
EXTT2=
EXTT3=
EXTT4=
EXTT5=
EXTT6=
EXTT7=
EXTT8=
EXTT9=
EXTT10=
EXTT11=
EXTT12=
EXTT13=
PLAYORDER=
